<svg width="21" height="20" viewBox="0 0 21 20" fill="none" xmlns="http://www.w3.org/2000/svg">
<path d="M5.84581 -0.000488281C2.6218 -0.000488281 0 2.60358 0 5.80402V14.1969C0 17.3974 2.6218 20 5.84581 20H14.3512C17.5752 20 20.197 17.3974 20.197 14.1969V5.80402C20.197 2.60358 17.5752 -0.000488281 14.3512 -0.000488281H5.84581ZM5.84581 1.7189H14.3512C16.6458 1.7189 18.4664 3.52624 18.4664 5.80402V14.1969C18.4664 16.4747 16.6458 18.2806 14.3512 18.2806H5.84581C3.55123 18.2806 1.73203 16.4747 1.73203 14.1969V5.80402C1.73203 3.52624 3.55123 1.7189 5.84581 1.7189ZM15.5189 3.43827C14.8499 3.43827 14.3078 3.97637 14.3078 4.64053C14.3078 5.30472 14.8499 5.84281 15.5189 5.84281C16.188 5.84281 16.73 5.30472 16.73 4.64053C16.73 3.97637 16.188 3.43827 15.5189 3.43827ZM10.0985 4.85024C7.24365 4.85024 4.91107 7.16577 4.91107 9.99976C4.91107 12.8337 7.24365 15.1493 10.0985 15.1493C12.9534 15.1493 15.2874 12.8337 15.2874 9.99976C15.2874 7.16577 12.9534 4.85024 10.0985 4.85024ZM10.0985 6.56963C12.0175 6.56963 13.5553 8.09484 13.5553 9.99976C13.5553 11.9047 12.0175 13.4299 10.0985 13.4299C8.17955 13.4299 6.6431 11.9047 6.6431 9.99976C6.6431 8.09484 8.17955 6.56963 10.0985 6.56963Z" fill="white"/>
</svg>
