<svg width="26" height="20" viewBox="0 0 26 20" fill="none" xmlns="http://www.w3.org/2000/svg">
<path d="M25.7588 2.36674C24.8115 2.76841 23.7929 3.03987 22.7241 3.16218C23.8149 2.53701 24.6525 1.54756 25.0471 0.368791C24.0262 0.947634 22.8956 1.36749 21.6913 1.59381C20.7278 0.612745 19.3544 -0.000488281 17.8345 -0.000488281C14.9158 -0.000488281 12.5503 2.25998 12.5503 5.04851C12.5503 5.44439 12.5966 5.82987 12.687 6.19918C8.29503 5.98889 4.40126 3.97814 1.79486 0.923682C1.33996 1.66907 1.07939 2.53629 1.07939 3.46177C1.07939 5.21375 2.01193 6.75894 3.43028 7.66474C2.56407 7.63886 1.74914 7.41163 1.03665 7.03318C1.03563 7.05445 1.03562 7.07543 1.03562 7.09655C1.03562 9.54336 2.85739 11.5836 5.27461 12.0478C4.83157 12.1632 4.36482 12.2242 3.88283 12.2242C3.54197 12.2242 3.21149 12.1934 2.88828 12.1342C3.56119 14.1401 5.51239 15.6001 7.82521 15.6409C6.01516 16.9954 3.73697 17.8022 1.26097 17.8022C0.834721 17.8022 0.413742 17.7782 0 17.7318C2.33958 19.1644 5.11689 20 8.10147 20C17.8212 20 23.1358 12.3065 23.1358 5.63369C23.1358 5.41488 23.1305 5.19757 23.1209 4.98103C24.1529 4.26857 25.0487 3.37953 25.7576 2.36678" fill="white"/>
</svg>
